<?xml version="1.0" standalone="no"?>
<!DOCTYPE svg PUBLIC "-//W3C//DTD SVG 1.1//EN" "http://www.w3.org/Graphics/SVG/1.1/DTD/svg11.dtd" >
<svg>
<metadata>
Created by FontForge 20120731 at Sat Mar 19 07:17:00 2016
 By www
Railroad Roman (C) 1994 Benn Coifman zephyr@cory.eecs.berkeley.edu
</metadata>
<defs>
<font id="RailroadRoman" horiz-adv-x="1420" >
  <font-face 
    font-family="RailroadRoman"
    font-weight="400"
    font-stretch="normal"
    units-per-em="1200"
    panose-1="0 0 4 0 0 0 0 0 0 0"
    ascent="960"
    descent="-240"
    x-height="800"
    cap-height="800"
    bbox="-38 -172 2738 1035"
    underline-thickness="20"
    underline-position="-123"
    unicode-range="U+0020-00A0"
  />
<missing-glyph horiz-adv-x="600" 
d="M75 0v1035h450v-1035h-450zM150 75h300v885h-300v-885z" />
    <glyph glyph-name=".notdef" horiz-adv-x="600" 
d="M75 0v1035h450v-1035h-450zM150 75h300v885h-300v-885z" />
    <glyph glyph-name=".null" horiz-adv-x="0" 
 />
    <glyph glyph-name="nonmarkingreturn" horiz-adv-x="800" 
 />
    <glyph glyph-name="space" unicode=" " horiz-adv-x="800" 
 />
    <glyph glyph-name="numbersign" unicode="#" horiz-adv-x="605" 
d="M451 825h-13l-42 199h-165l-49 -198h-13l55 209h182zM520 736q-30 65 -104 58q-58 -6 -83 -64q0 8 1 10q22 58 84 62q42 3 72 -16t30 -50zM522 693q-30 64 -104 57q-59 -6 -84 -64q0 9 1 11q23 57 84 61q42 3 72.5 -15.5t30.5 -49.5zM438 567h-12v75h12v-75zM334 656h-44
v11h44v-11zM296 730q-25 58 -83 64q-74 7 -104 -58q0 32 30 50.5t72 15.5q62 -4 84 -62q1 -2 1 -10zM338 564h-11v72h11v-72zM294 686q-25 58 -83 64q-74 7 -104 -57q0 31 30.5 49.5t72.5 15.5q61 -4 84 -61v-11zM517 509q0 -31 -30.5 -50t-72.5 -16q-61 4 -84 62v10
q25 -58 83 -64q74 -7 104 58zM295 564h-11v72h11v-72zM336 538h-45v11h45v-11zM201 567h-11v75h11v-75zM313 338h-11v111h11v-111zM448 418l-30 -288h-13l30 288h13zM290 515q0 -8 -1 -10q-23 -58 -84 -62q-42 -3 -72.5 16t-30.5 50q30 -65 104 -58q59 6 84 64zM331 262
l-17 -11h-29v15h29l17 11v-15zM205 134h-13l-32 288h13zM408 92q0 -30 -34.5 -55.5t-72.5 -26.5q-28 0 -57.5 23t-41.5 54v11q12 -29 41.5 -54.5t55.5 -25.5q74 -1 109 74z" />
    <glyph glyph-name="dollar" unicode="$" horiz-adv-x="326" 
d="M298 623l-19 -18l6 18v31l13 -3v-28zM47 606l-18 18v28l13 2v-30zM255 306h-20v164q0 35 -13 51q-22 28 -54 29q-39 2 -69 -51v-193h-20v258h20v-34q26 40 69 38q39 -2 69 -34q18 -19 18 -64v-164z" />
    <glyph glyph-name="percent" unicode="%" horiz-adv-x="493" 
d="M454 371q0 -25 -18.5 -42t-45.5 -19t-49 16.5t-21 44.5q1 25 21 41.5t46 16.5q31 0 52 -21v309l-280 -73v-344q1 -6 1 -9q0 -25 -19 -42.5t-45 -18.5q-28 -2 -49.5 16.5t-20.5 44.5q0 25 20 41.5t47 16.5q31 0 52 -21v442l309 80v-479z" />
    <glyph glyph-name="ampersand" unicode="&#x26;" horiz-adv-x="1185" 
d="M1175 393q0 -42 -34.5 -72.5t-78.5 -30.5t-78.5 30.5t-34.5 72.5q0 18 7 34q-69 -35 -111 -88q28 -40 39 -68q17 -42 41 -149q12 -53 27 -73q24 -33 77 -33q56 0 80 36l36 60q14 15 19 12q10 -6 5 -15l-45 -78q-34 -41 -94 -41q-61 0 -91 18q-21 13 -44 49
q-54 85 -118 176q-35 -69 -50 -95q-28 -50 -46 -66q-54 -49 -83 -60q-55 -22 -183 -22q-151 0 -250 34q-155 53 -155 181q0 124 134 194l86 44q-34 53 -41 75.5t-7 82.5q0 100 98 165t245 65q112 0 198 -48q100 -56 100 -150q0 -83 -81 -167q23 -18 85 -102q71 85 176 120
q36 12 59 12q44 0 78.5 -30.5t34.5 -72.5zM798 638q0 81 -100 129q-81 39 -173 39q-102 0 -165.5 -46t-63.5 -117q0 -62 54 -86q32 -9 95 -27q23 -7 112 -20t113 -20q13 -4 49 -16q79 69 79 164zM754 261q-33 34 -78 62.5t-67 30.5q-35 3 -83 0q-74 -5 -85 -5q-71 0 -126 27
q-35 17 -45 34q-43 -56 -53 -83q-13 -36 -13 -115q0 -111 85 -163q56 -34 126 -34q112 0 168 23q31 13 70 50q13 13 42 66q46 86 59 107z" />
    <glyph glyph-name="quotesingle" unicode="'" horiz-adv-x="144" 
d="M170 915q0 -37 -47 -113q-27 -44 -97 -105l-18 15q49 52 50 90q0 6 -4.5 20.5t-4.5 18.5t2 8q0 -7 -15.5 26.5t-15.5 39.5q0 31 22 53t53 22t53 -22t22 -53z" />
    <glyph glyph-name="comma" unicode="," horiz-adv-x="190" 
d="M170 75q0 -37 -47 -113q-27 -44 -97 -105l-18 15q49 52 50 90q0 6 -4.5 20.5t-4.5 18.5t2 8q0 -7 -15.5 26.5t-15.5 39.5q0 31 22 53t53 22t53 -22t22 -53z" />
    <glyph glyph-name="hyphen" unicode="-" horiz-adv-x="290" 
d="M270 350h-250v100h250v-100z" />
    <glyph glyph-name="period" unicode="." horiz-adv-x="190" 
d="M170 75q0 -31 -22 -53t-53 -22t-53 22t-22 53t22 53t53 22t53 -22t22 -53z" />
    <glyph glyph-name="zero" unicode="0" horiz-adv-x="900" 
d="M880 410q0 -202 -112.5 -311t-317.5 -109t-317.5 109t-112.5 311t112.5 311t317.5 109t317.5 -109t112.5 -311zM680 410q0 223 -50.5 309t-179.5 86t-179.5 -86t-50.5 -309t50.5 -309t179.5 -86t179.5 86t50.5 309z" />
    <glyph glyph-name="one" unicode="1" horiz-adv-x="660" 
d="M640 10q0 -5 -10 -10h-600q-10 5 -10 10t10 10q110 0 147 18q53 26 53 72v580q0 40 -38 65q-41 25 -112 25q-10 5 -10 10t10 10h330q9 -2 10 -3q7 -4 10 -17v-670q0 -46 53 -72q37 -18 147 -18q10 -5 10 -10z" />
    <glyph glyph-name="two" unicode="2" horiz-adv-x="825" 
d="M805 212q-7 -64 -71 -130t-133 -82q-29 -7 -54 -7q-21 0 -101 22.5t-117 22.5q-38 0 -127.5 -22.5t-107.5 -22.5q-23 0 -47 7q-1 0 -11 8.5t-16 7.5q-5 224 80 287q75 55 133 74q45 14 163.5 28t154.5 64q24 33 24 121q0 115 -47 165t-153 50q-73 0 -107 -24t-60 -92
q24 -32 24 -70q0 -44 -30.5 -78.5t-72.5 -34.5t-72.5 34.5t-30.5 78.5q0 101 132 162q106 49 217 49q400 0 400 -240q0 -115 -105 -160q-69 -29 -275 -50q-144 -14 -269 -96q-28 -18 -46 -73t-18 -116q28 65 74 96q69 46 209 49q37 1 121 -29.5t120 -29.5q87 2 193 41
q20 10 22 9q6 -4 4 -19z" />
    <glyph glyph-name="three" unicode="3" horiz-adv-x="789" 
d="M769 230q0 -240 -400 -240q-111 0 -217 49q-132 61 -132 162q0 44 30.5 78.5t72.5 34.5t72.5 -34.5t30.5 -78.5q0 -38 -24 -70q27 -70 61.5 -93t105.5 -23q106 0 153 50t47 165q0 91 -24 130q-38 61 -156 74q119 14 151 60q19 28 19 116q0 95 -31 137q-42 58 -159 58
q-73 0 -107 -24t-60 -92q24 -32 24 -70q0 -44 -30.5 -78.5t-72.5 -34.5t-72.5 34.5t-30.5 78.5q0 101 132 162q106 49 217 49q390 0 390 -220q0 -79 -38.5 -120.5t-121.5 -56.5q170 -36 170 -203z" />
    <glyph glyph-name="four" unicode="4" horiz-adv-x="915" 
d="M895 10q0 -5 -10 -10h-600q-10 5 -10 10t10 10q110 0 147 18q53 26 53 72v203h-434q-31 0 -31 20q0 11 8 19l448 448h359q10 -5 10 -10t-10 -10q-71 0 -110.5 -25t-39.5 -65v-352h100q40 0 65 39.5t25 110.5q5 10 10 10t10 -10v-325q-5 -10 -10 -10t-10 10q0 71 -25 112
q-25 38 -65 38h-100v-203q0 -46 53 -72q37 -18 147 -18q10 -5 10 -10zM485 338v350q0 10 -13 21t-24 11q-15 0 -47 -32l-282 -281q-24 -24 -10 -50q10 -19 53 -19h323z" />
    <glyph glyph-name="five" unicode="5" horiz-adv-x="790" 
d="M770 240q0 -250 -401 -250q-111 0 -217 49q-132 61 -132 162q0 44 30.5 78.5t72.5 34.5t72.5 -34.5t30.5 -78.5q0 -38 -24 -70q27 -70 61.5 -93t105.5 -23q104 0 152 53.5t48 171.5q0 100 -24 146q-39 76 -156 89q-27 3 -52 3q-66 0 -153 -24q-123 -34 -150 -39l23 373
q1 22 22 22q4 0 12 -12t16 -12q-9 0 46.5 11t109.5 11q33 0 160 -20t167 -19q49 1 89 14q32 14 64 27q5 3 9 6q9 5 13 3q6 -4 4 -19q-7 -66 -89.5 -135t-150.5 -69q-39 0 -177.5 32t-177.5 32q-42 0 -70.5 -27t-32.5 -69l-11 -118l149 36q85 20 146 20q15 0 34 -2
q196 -21 288.5 -83.5t92.5 -176.5z" />
    <glyph glyph-name="six" unicode="6" horiz-adv-x="805" 
d="M785 651q0 -43 -30 -73t-73 -30t-73 30t-30 73q0 28 24 60q-24 57 -58 76.5t-106 19.5q-127 0 -173 -80t-46 -300q105 69 200 69q114 0 209 -40q151 -64 151 -206q0 -260 -350 -260q-167 0 -278 94q-132 112 -132 326q0 204 109 312t311 108q109 0 215 -43
q130 -53 130 -136zM580 250q0 93 -46.5 156.5t-111.5 63.5q-72 0 -134 -49q-64 -52 -64 -116q0 -151 69 -238q42 -53 137 -52q150 1 150 235z" />
    <glyph glyph-name="seven" unicode="7" horiz-adv-x="751" 
d="M731 788q7 -149 -69 -230q-30 -29 -89 -89q-69 -70 -99 -121q-38 -64 -43 -145q-3 -48 -3 -60q0 -58 29 -98q13 -18 52 -25q9 -5 9 -10t-9 -10h-256q-48 0 -48 150q0 115 120 203q71 46 210 141q65 45 85 65q28 27 54 84q7 15 12 48q2 11 -2 12q-2 -1 -11 -8
q-52 -42 -130.5 -70.5t-140.5 -28.5q-39 0 -132 17t-133 17q-92 0 -100 -59q-2 -17 -12 -17q-5 0 -5 21q0 1 3 55q3 50 2 68q0 7 -5 45q-3 26 0 45q4 22 22 22q4 0 12.5 -12t15.5 -12q-9 0 67 11t129 11q33 0 120.5 -15t126.5 -14q116 2 193 31q20 10 22 9t3 -31z" />
    <glyph glyph-name="eight" unicode="8" horiz-adv-x="750" 
d="M730 219q0 -104 -105 -166.5t-276 -62.5q-145 0 -237 53t-92 142q0 57 36.5 117.5t86.5 91.5q-97 67 -97 207q0 100 98 165t245 65q112 0 198 -48q100 -56 100 -150q0 -83 -81 -167q58 -36 91 -102t33 -145zM662 638q0 81 -100 129q-81 39 -173 39q-102 0 -165.5 -46
t-63.5 -117q0 -62 54 -86q32 -9 95 -27q23 -7 112 -20t113 -20q13 -4 49 -16q79 69 79 164zM611 189q0 58 -57 96q-20 13 -90 41q-40 16 -112 19q-89 4 -125 12q-32 6 -64 25q-52 -34 -85.5 -87t-33.5 -103q0 -89 103 -137q85 -40 202 -40q125 0 193.5 45.5t68.5 128.5z" />
    <glyph glyph-name="nine" unicode="9" horiz-adv-x="805" 
d="M785 410q0 -204 -109 -312t-311 -108q-109 0 -215 43q-130 53 -130 136q0 43 30 73t73 30t73 -30t30 -73q0 -28 -24 -60q24 -57 58 -76.5t106 -19.5q127 0 173 80t46 300q-105 -69 -200 -69q-360 0 -360 246q0 260 350 260q410 0 410 -420zM580 523q-21 162 -67 224
q-43 58 -138 58q-150 0 -150 -235q0 -98 42.5 -159t115.5 -61q74 0 136 46t62 109q0 9 -1 18z" />
    <glyph glyph-name="less" unicode="&#x3c;" horiz-adv-x="100" 
 />
    <glyph glyph-name="greater" unicode="&#x3e;" horiz-adv-x="400" 
 />
    <glyph glyph-name="at" unicode="@" horiz-adv-x="1058" 
d="M1000 1002q-6 -22 -36 -60t-34 -48q-11 -28 -11 -55q0 -13 8.5 -58.5t8.5 -60.5q0 -23 -7 -47q-18 -61 -36 -94t-59 -83q-6 -7 7 -37l5 -12q13 -31 13 -55q0 -5 -8 -55q-7 -46 -5 -67q0 -2 8 -44q7 -36 6 -54q-1 -34 -16 -72q-21 -55 -21 -59q0 -8 -4 -27q-2 -11 -9 -13
q-18 -8 -48 0q-9 2 -9 16q0 10 17 27q3 3 8 12q7 16 4 25q-14 0 -31 7q-3 6 -3 12q0 4 14 25q3 6 3 11q0 14 -39 26q-47 14 -59 27q-6 7 -18 40q-8 24 -26 24q-82 -1 -163 -39q-20 -9 -20 -40q0 -8 3.5 -35.5t3.5 -32.5t11 -112q1 -15 -22 -20.5t-43 -0.5q-14 3 -14 16
q0 5 2 9l12 12q9 12 9 20q-19 40 -48 120q-2 8 -15 31.5t-16 24.5q-16 11 -32 21q-9 4 -42 5q-7 0 -25.5 -32t-28 -55.5t-40.5 -114.5q-7 -30 -64 -21q-10 2 -16 10q-5 8 0 17q7 3 13 6q14 8 26 30q6 12 8 34q0 12 1 25q9 29 32 99q3 9 3 19q0 24 -13.5 41.5t-15.5 22.5
q-6 14 -2 42q1 9 10 24q8 12 7 14q-2 11 -25 23.5t-25 16.5q-23 32 -20 74q2 26 23 63q-5 8 -26 31q-13 14 -25 44q39 -13 92 -41q2 -1 5 -1t12 5t12 6q22 5 61 4q3 -1 15 -6.5t16 -5.5q3 0 6 2q9 6 57 43q0 -10 2 -23.5t2 -26.5v-17q-2 -9 -17 -20q-5 -3 -5 -6l7 -9
q7 -10 9 -25q36 9 77 17q33 6 64 8q17 1 37 0q16 -1 43 -1q136 -3 169 -2q37 1 74 40q27 28 54 77q21 38 21 82q0 8 -2 36.5t-2 36.5q0 42 18 78q31 62 87 113q18 16 33 12q11 -4 7 -19zM255 520q-9 10 -24 10q-13 0 -21 -10q8 -9 22 -9t23 9zM162 519q-9 10 -23 10
q-13 0 -21 -10q8 -9 22 -9t22 9z" />
    <glyph glyph-name="A" unicode="A" 
d="M1410 10q0 -5 -10 -10h-626q-10 5 -10 10t10 10q107 0 147 18t40 65q0 55 -56 147l-50 82h-467l-53 -82q-55 -85 -55 -145q0 -47 31 -64q38 -21 153 -21q10 -5 10 -10t-10 -10h-444q-10 5 -10 10t10 10q88 0 127.5 18t72.5 71l422 671q6 9 25 20h93q6 -2 25 -20l415 -670
q32 -52 68 -70q41 -20 132 -20q10 -5 10 -10zM840 357l-216 348l-220 -348h436z" />
    <glyph glyph-name="B" unicode="B" horiz-adv-x="1330" 
d="M1320 206q0 -96 -83 -155q-72 -51 -164 -51h-1053q-10 5 -10 10t10 10q110 0 147 18q53 26 53 72v580q0 46 -53 72q-37 18 -147 18q-10 5 -10 10t10 10h1050q93 0 164 -50q83 -59 83 -156q0 -69 -43.5 -120t-119.5 -74q77 -22 121.5 -73.5t44.5 -120.5zM1117 594
q0 80 -41 130.5t-106 50.5h-550v-363h550q65 0 106 51.5t41 130.5zM1120 206q0 79 -41 130.5t-106 51.5h-553v-363h553q65 0 106 50.5t41 130.5z" />
    <glyph glyph-name="C" unicode="C" horiz-adv-x="1180" 
d="M1170 223q0 -123 -267 -196q-138 -37 -238 -37q-259 0 -441 97q-214 114 -214 323t209 323q178 97 436 97q128 0 268 -40q104 -30 127 -47q9 -6 29 -6q24 1 39 12q25 19 25 55q5 10 10 10t10 -10v-285q-5 -10 -10 -10t-10 10q0 67 -17 106q-13 30 -46 58q-89 75 -207 103
q-81 19 -218 19q-226 0 -335.5 -96.5t-109.5 -298.5q0 -395 455 -395q103 0 238.5 40t190.5 86q47 40 47 82q0 25 14 25q15 0 15 -25z" />
    <glyph glyph-name="D" unicode="D" horiz-adv-x="1340" 
d="M1330 400q0 -166 -163.5 -283t-392.5 -117h-754q-10 5 -10 10t10 10q110 0 147 18q53 26 53 72v580q0 46 -53 72q-37 18 -147 18q-10 5 -10 10t10 10h755q229 0 392 -117t163 -283zM1130 400q0 198 -85 286.5t-270 88.5h-355v-750h355q185 0 270 88.5t85 286.5z" />
    <glyph glyph-name="E" unicode="E" 
d="M1410 0h-1390q-10 5 -10 10t10 10q110 0 147 18q53 26 53 72v580q0 46 -53 72q-37 18 -147 18q-10 5 -10 10t10 10h1390v-225q-5 -10 -10 -10t-10 10q0 19 -24 65q-27 52 -59 78.5t-91 42.5q-52 14 -96 14h-700v-360h470q21 0 51 12q34 14 48 36q11 17 33 83q18 56 18 69
q5 10 10 10t10 -10v-425q-5 -10 -10 -10t-10 10q0 12 -18.5 68t-30 80.5t-50.5 39.5q-30 12 -51 12h-470v-365h700q117 0 182 53q34 27 63 83q25 48 25 64q5 10 10 10t10 -10v-225z" />
    <glyph glyph-name="F" unicode="F" 
d="M1410 575q-5 -10 -10 -10t-10 10q0 19 -24 65q-27 52 -59 78.5t-91 42.5q-52 14 -96 14h-700v-360h470q21 0 51 12q34 14 48 36q11 17 33 83q18 56 18 69q5 10 10 10t10 -10v-425q-5 -10 -10 -10t-10 10q0 12 -18.5 68t-30 80.5t-50.5 39.5q-30 12 -51 12h-470v-280
q0 -46 53 -72q37 -18 147 -18q10 -5 10 -10t-10 -10h-600q-10 5 -10 10t10 10q110 0 147 18q53 26 53 72v580q0 46 -53 72q-37 18 -147 18q-10 5 -10 10t10 10h1390v-225z" />
    <glyph glyph-name="G" unicode="G" horiz-adv-x="1466" 
d="M1456 304q0 -5 -10 -10q-14 0 -70 -9q-62 -10 -80 -21q-37 -22 -52 -66q-10 -40 -20 -81q-13 -7 -66.5 -6t-56.5 -2q-59 -44 -197 -81.5t-239 -37.5q-259 0 -441 97q-214 114 -214 323t209 323q178 97 436 97q128 0 268 -40q104 -30 127 -47q9 -6 29 -6q24 1 39 12
q25 19 25 55q5 10 10 10t10 -10v-285q-5 -10 -10 -10t-10 10q0 114 -63 164q-92 73 -208 101q-87 21 -217 21q-226 0 -335.5 -96.5t-109.5 -298.5q0 -395 455 -395q89 0 203.5 29t184.5 69q15 9 3 91q-5 35 -53 62q-17 9 -77 19q-56 9 -70 9q-10 5 -10 10t10 10h590
q10 -5 10 -10z" />
    <glyph glyph-name="H" unicode="H" horiz-adv-x="1430" 
d="M1420 10q0 -5 -10 -10h-600q-10 5 -10 10t10 10q110 0 147 18q53 26 53 72v277h-590v-277q0 -46 53 -72q37 -18 147 -18q10 -5 10 -10t-10 -10h-600q-10 5 -10 10t10 10q110 0 147 18q53 26 53 72v580q0 46 -53 72q-37 18 -147 18q-10 5 -10 10t10 10h600q10 -5 10 -10
t-10 -10q-110 0 -147 -18q-53 -26 -53 -72v-278h590v278q0 46 -53 72q-37 18 -147 18q-10 5 -10 10t10 10h600q10 -5 10 -10t-10 -10q-110 0 -147 -18q-53 -26 -53 -72v-580q0 -46 53 -72q37 -18 147 -18q10 -5 10 -10z" />
    <glyph glyph-name="I" unicode="I" horiz-adv-x="640" 
d="M630 10q0 -5 -10 -10h-600q-10 5 -10 10t10 10q110 0 147 18q53 26 53 72v580q0 46 -53 72q-37 18 -147 18q-10 5 -10 10t10 10h600q10 -5 10 -10t-10 -10q-110 0 -147 -18q-53 -26 -53 -72v-580q0 -46 53 -72q37 -18 147 -18q10 -5 10 -10z" />
    <glyph glyph-name="J" unicode="J" horiz-adv-x="1181" 
d="M1171 790q0 -5 -10 -10q-110 0 -147 -18q-53 -26 -53 -72v-380q0 -168 -171 -252q-139 -68 -354 -68q-142 0 -257 55t-156 144q-13 28 -13 52q0 44 30.5 78.5t72.5 34.5t72.5 -34.5t30.5 -78.5q0 -45 -28.5 -79t-68.5 -34q-10 0 -19 2q127 -108 296 -108q159 0 262 85
t103 223v360q0 46 -53 72q-37 18 -147 18q-10 5 -10 10t10 10h600q10 -5 10 -10z" />
    <glyph glyph-name="K" unicode="K" horiz-adv-x="1318" 
d="M1308 10q0 -5 -10 -10h-586q-10 5 -10 10t10 10q16 0 58.5 18t57.5 33q37 35 37 66q0 32 -33 68l-200 219l-212 -132v-182q0 -46 53 -72q37 -18 147 -18q10 -5 10 -10t-10 -10h-600q-10 5 -10 10t10 10q110 0 147 18q53 26 53 72v580q0 46 -53 72q-37 18 -147 18
q-10 5 -10 10t10 10h600q10 -5 10 -10t-10 -10q-110 0 -147 -18q-53 -26 -53 -72v-370l523 320q61 37 61 62q0 16 -16 40q-10 16 -56 28q-37 10 -58 10q-10 5 -10 10t10 10h404q10 -5 10 -10t-10 -10q-13 0 -65.5 -16.5t-74.5 -26.5q-26 -12 -80 -46l-300 -188l313 -341
q53 -57 111 -99q17 -12 59 -27.5t57 -15.5q10 -5 10 -10z" />
    <glyph glyph-name="L" unicode="L" 
d="M1410 0h-1390q-10 5 -10 10t10 10q110 0 147 18q53 26 53 72v580q0 46 -53 72q-37 18 -147 18q-10 5 -10 10t10 10h600q10 -5 10 -10t-10 -10q-110 0 -147 -18q-53 -26 -53 -72v-665h700q117 0 182 53q34 27 63 83q25 48 25 64q5 10 10 10t10 -10v-225z" />
    <glyph glyph-name="M" unicode="M" horiz-adv-x="1625" 
d="M1615 10q0 -5 -10 -10h-600q-10 5 -10 10t10 10q110 0 147 18q53 26 53 72v582l-423 -672q-6 -9 -25 -20h-93q-6 2 -25 20l-394 637v-547q0 -46 53 -72q37 -18 147 -18q10 -5 10 -10t-10 -10h-425q-10 5 -10 10t10 10q110 0 147 18q53 26 53 72v586q0 32 -69 66
q-37 18 -127 18q-10 5 -10 10t10 10h340l436 -705l449 705h356q10 -5 10 -10t-10 -10q-110 0 -147 -18q-53 -26 -53 -72v-580q0 -46 53 -72q37 -18 147 -18q10 -5 10 -10z" />
    <glyph glyph-name="N" unicode="N" horiz-adv-x="1295" 
d="M1285 790q0 -5 -10 -10q-110 0 -147 -18q-53 -26 -53 -73v-689h-48l-782 682v-572q0 -46 53 -72q37 -18 147 -18q10 -5 10 -10t-10 -10h-425q-10 5 -10 10t10 10q110 0 147 18q53 26 53 72v583q0 10 -24.5 33.5t-50.5 35.5q-37 18 -125 18q-10 5 -10 10t10 10h370
l660 -568v458q0 46 -53 72q-37 18 -147 18q-10 5 -10 10t10 10h425q10 -5 10 -10z" />
    <glyph glyph-name="O" unicode="O" horiz-adv-x="1330" 
d="M1320 410q0 -208 -214 -323q-181 -97 -441 -97q-258 0 -441 98q-214 115 -214 322q0 214 214 326q179 94 441 94q260 0 441 -96q214 -114 214 -324zM1120 410q0 201 -112 298t-343 97q-455 0 -455 -395t455 -395t455 395z" />
    <glyph glyph-name="P" unicode="P" horiz-adv-x="1330" 
d="M1320 594q0 -96 -83 -155q-72 -51 -164 -51h-653v-278q0 -46 53 -72q37 -18 147 -18q10 -5 10 -10t-10 -10h-600q-10 5 -10 10t10 10q110 0 147 18q53 26 53 72v580q0 46 -53 72q-37 18 -147 18q-10 5 -10 10t10 10h1053q92 0 164 -51q83 -59 83 -155zM1120 594
q0 80 -41 130.5t-106 50.5h-553v-363h553q65 0 106 51.5t41 130.5z" />
    <glyph glyph-name="Q" unicode="Q" horiz-adv-x="1330" 
d="M1346 -29q-5 -53 -67 -98t-124 -45q-34 0 -154.5 23t-132.5 23q-44 0 -62.5 -5.5t-59.5 -31.5q-15 -9 -18 -8q-4 4 -3 17q4 35 34.5 79.5t71.5 74.5q-119 -10 -166 -10q-259 0 -441 98q-214 115 -214 322q0 212 214 325q179 95 441 95q259 0 441 -98q214 -115 214 -322
q0 -272 -353 -383q16 -4 120 -41q90 -32 116 -32q76 0 66 -1q24 3 57 28q14 11 17 8q4 -3 3 -18zM1120 410q0 201 -112 298t-343 97q-233 0 -344 -96t-111 -299q0 -395 455 -395t455 395z" />
    <glyph glyph-name="R" unicode="R" horiz-adv-x="1388" 
d="M1378 77q-19 -19 -62 -43q-61 -34 -108 -34q-69 0 -98 14q-42 21 -72 86l-66 145q-37 82 -104 141q-2 2 -9 2h-439v-278q0 -46 53 -72q37 -18 147 -18q10 -5 10 -10t-10 -10h-600q-10 5 -10 10t10 10q110 0 147 18q53 26 53 72v580q0 46 -53 72q-37 18 -147 18
q-10 5 -10 10t10 10h1053q92 0 164 -51q83 -59 83 -155q0 -92 -69.5 -149t-178.5 -57q41 -36 92 -121q12 -21 33.5 -84t30.5 -77q25 -38 76 -37q31 0 56 18q13 6 16 4q10 -8 2 -14zM1120 594q0 80 -41 130.5t-106 50.5h-553v-363h553q65 0 106 51.5t41 130.5z" />
    <glyph glyph-name="S" unicode="S" horiz-adv-x="1258" 
d="M1248 250q0 -211 -286 -250q-73 -10 -332 -10q-250 0 -331 10q-90 11 -160 55q-31 19 -62 6q-35 -15 -35 -55q-5 -10 -10 -10t-10 10v285q5 10 10 10t10 -10q0 -74 17 -106q9 -17 46 -53q88 -86 193 -102q65 -10 332 -10q276 0 332 10q162 29 162 135q0 58 -48.5 101.5
t-113.5 43.5h-666q-114 0 -200 73.5t-86 176.5q0 211 286 250q73 10 332 10q250 0 331 -10q90 -11 160 -55q32 -20 62 -6q35 17 35 55q5 10 10 10t10 -10v-285q-5 -10 -10 -10t-10 10q0 75 -17 106q-10 18 -46 53q-88 86 -193 102q-65 10 -332 10q-276 0 -332 -10
q-162 -29 -162 -135q0 -57 47.5 -96t114.5 -39h666q112 0 199 -78.5t87 -181.5z" />
    <glyph glyph-name="T" unicode="T" horiz-adv-x="1430" 
d="M1420 575q-5 -10 -10 -10t-10 10q0 18 -40 70t-77.5 77t-101.5 41q-47 12 -71 12h-295v-665q0 -46 53 -72q37 -18 147 -18q10 -5 10 -10t-10 -10h-600q-10 5 -10 10t10 10q110 0 147 18q53 26 53 72v665h-295q-24 0 -71 -12q-65 -17 -104.5 -44t-77 -77.5t-37.5 -66.5
q-5 -10 -10 -10t-10 10v225h1410v-225z" />
    <glyph glyph-name="U" unicode="U" horiz-adv-x="1443" 
d="M1433 790q0 -5 -10 -10q-110 0 -147 -18q-53 -26 -53 -73v-379q0 -149 -150 -240q-132 -80 -308 -80q-218 0 -364 68q-181 84 -181 252v380q0 46 -53 72q-37 18 -147 18q-10 5 -10 10t10 10h600q10 -5 10 -10t-10 -10q-110 0 -147 -18q-53 -26 -53 -72v-360
q0 -135 111 -221.5t274 -86.5q158 0 275.5 86.5t117.5 207.5v374q0 46 -53 72q-37 18 -147 18q-10 5 -10 10t10 10h425q10 -5 10 -10z" />
    <glyph glyph-name="V" unicode="V" 
d="M1410 790q0 -5 -10 -10q-89 0 -130 -20q-37 -17 -70 -69l-422 -671q-6 -9 -25 -20h-93q-6 2 -25 20l-415 670q-32 52 -68 70q-41 20 -132 20q-10 5 -10 10t10 10h626q10 -5 10 -10t-10 -10q-107 0 -147 -18t-40 -65q0 -56 56 -147l281 -455l289 455q55 87 55 145
q0 48 -32 65q-37 20 -152 20q-10 5 -10 10t10 10h444q10 -5 10 -10z" />
    <glyph glyph-name="W" unicode="W" horiz-adv-x="1628" 
d="M1618 790q0 -5 -10 -10q-109 0 -146 -17t-54 -73l-206 -670q-4 -5 -25 -20h-117q-6 2 -25 20l-196 638l-196 -638q-4 -5 -25 -20h-119q-6 2 -25 20l-254 670q-7 19 -14 36q-14 24 -39 36q-37 18 -147 18q-10 5 -10 10t10 10h600q10 -5 10 -10t-10 -10q-110 0 -147 -18
q-54 -26 -54 -65q0 -4 1 -7l220 -582l203 672q4 5 25 20h123q6 -2 25 -20l184 -672l180 582q5 16 -10.5 37.5t-42.5 34.5q-38 18 -147 18q-10 5 -10 10t10 10h428q10 -5 10 -10z" />
    <glyph glyph-name="X" unicode="X" horiz-adv-x="1181" 
d="M1171 790q0 -5 -10 -10q-90 0 -127 -18q-21 -10 -73 -71l-255 -297l214 -232q54 -58 111 -99q18 -12 59.5 -27.5t56.5 -15.5q10 -5 10 -10t-10 -10h-586q-10 5 -10 10t10 10q16 0 58.5 18t57.5 33q37 35 37 66q0 32 -33 68l-169 184l-158 -179q-58 -66 -58 -112
q0 -39 31 -56q39 -22 136 -22q10 -5 10 -10t-10 -10h-424q-10 5 -10 10t10 10q90 0 127 18q21 10 73 71l256 298l-269 294q-40 44 -73 59q-45 20 -133 20q-10 5 -10 10t10 10h586q10 -5 10 -10t-10 -10q-72 0 -116 -44q-29 -29 -29 -53t25 -51l203 -220l157 178
q58 66 58 112q0 39 -31 56q-39 22 -136 22q-10 5 -10 10t10 10h424q10 -5 10 -10z" />
    <glyph glyph-name="Y" unicode="Y" horiz-adv-x="1181" 
d="M1171 790q0 -5 -10 -10q-90 0 -127 -18q-21 -10 -73 -71l-246 -287q-9 -11 -9 -20v-274q0 -46 53 -72q37 -18 147 -18q10 -5 10 -10t-10 -10h-600q-10 5 -10 10t10 10q110 0 147 18q53 26 53 72v276q0 10 -9 20l-271 295q-41 44 -73 59q-45 20 -133 20q-10 5 -10 10
t10 10h586q10 -5 10 -10t-10 -10q-72 0 -116 -44q-29 -29 -29 -53t25 -51l193 -209q5 -5 10 -5t9 5l148 167q58 65 58 112q0 39 -31 56q-39 22 -136 22q-10 5 -10 10t10 10h424q10 -5 10 -10z" />
    <glyph glyph-name="Z" unicode="Z" horiz-adv-x="1210" 
d="M1200 0h-1190l861 775h-571q-48 0 -101 -15t-81 -38q-36 -29 -64 -82q-24 -46 -24 -65q-5 -10 -10 -10t-10 10v225h1190l-865 -775h575q117 0 182 53q34 27 63 83q25 48 25 64q5 10 10 10t10 -10v-225z" />
    <glyph glyph-name="bracketleft" unicode="[" horiz-adv-x="2694" 
d="M2338 767h-5v77h5v-77zM2328 765h-40v85h40v-85zM2626 131q0 -30 -32 -29v10q12 3 12 18v312q0 10 10 10t10 -10v-311zM2728 93l-19 -23h-32l-23 23h-44l19 22l2 26h23l23 22h29l22 -16v-54zM2443 239h-19v196q0 11 -10 22l-102 117q-8 9 -21 9v15h11q8 0 16 -9l110 -123
q15 -17 15 -25v-202zM1773 799q-32 4 -45 2q-2 -1 -29 -16v53q10 -8 29 -17l19 -5l26 2v-19zM2387 73q0 -30 -21.5 -51.5t-51.5 -21.5q-31 0 -52.5 21.5t-21.5 51.5q0 31 21.5 52t52.5 21q30 0 51.5 -21t21.5 -52zM2161 103h-65v51h65v-51zM2159 80h-31v7l31 5v-12z
M2159 104l-65 -24v12l65 24v-12zM2071 154h-70v14h70v-14zM2093 112q-37 0 -39 -27h-29q-4 27 -47 27v35h115v-35zM2328 108h-91q-22 0 -22 -24v-41q0 -21 -29 -21h-295q-26 0 -26 26v41q0 19 -19 19h-88v27q32 18 51 18h61q31 0 31 -31v-24q0 -12 1 -14q4 -6 20 -6h231
q15 0 17 3t2 19v22q0 22 3.5 26.5t20.5 4.5h80q24 0 52 -18v-27zM1377 712h-66l11 139h44zM1975 105h-65v50h65v-50zM1975 82l-31 -2v9l31 5v-12zM1975 106l-65 -24v12l65 24v-12zM1845 73q0 -30 -21.5 -51.5t-51.5 -21.5q-31 0 -52.5 21.5t-21.5 51.5q0 31 21.5 52t52.5 21
q30 0 51.5 -21t21.5 -52zM2590 22h-159q-23 0 -28 61q-3 40 -13 65q-15 41 -36 41h-2015q-41 0 -49 -107q-4 -60 -28 -60h-159v211h204v452q0 22 23 22h1148q14 0 28 -1q7 0 27 -5l139 -61h104v210h507v-468h100q23 0 23 -21v-127h184v-212zM1026 712h-66l10 139h45z
M898 769h-10q2 8 5 8t5 -8zM924 725h-63q-2 0 4 5t6 6q0 20 9 29l13 3l10 -2q4 -1 10 -29q1 -2 11 -12zM899 707h-13v15h13v-15zM1655 64h-53v99h-514v-99h-54v112h621v-112zM1582 38h-473v112h473v-112zM992 73q0 -30 -21.5 -51.5t-51.5 -21.5q-31 0 -52 21.5t-21 51.5
q0 31 21 52t52 21q30 0 51.5 -21t21.5 -52zM302 606h-40v85h40v-85zM258 609h-5v77h5v-77zM766 103h-65v51h65v-51zM764 80h-31v7l31 5v-12zM764 104l-64 -24v12l64 24v-12zM676 154h-70v14h70v-14zM698 112q-37 0 -39 -27h-29q-4 27 -46 27v35h114v-35zM933 108h-91
q-22 0 -22 -24v-41q0 -21 -28 -21h-296q-26 0 -26 26v41q0 19 -19 19h-88v27q32 18 51 18h61q31 0 31 -31v-24q0 -12 1 -14q4 -6 21 -6h230q15 0 17 3t2 19v22q0 22 4 26.5t20 4.5h80q24 0 52 -18v-27zM580 105h-64v50h64v-50zM580 82l-31 -2v9l31 5v-12zM580 106l-64 -24
v12l64 24v-12zM301 435q-11 0 -21 -8.5t-10 -19.5v-169h-20v170q0 15 17.5 29t33.5 14v-16zM450 73q0 -30 -21.5 -51.5t-51.5 -21.5q-31 0 -52 21.5t-21 51.5q0 31 21 52t52 21q30 0 51.5 -21t21.5 -52zM99 102q-31 -1 -31 29v311q0 10 10 10q9 0 9 -10v-312q0 -17 12 -18
v-10zM83 93h-45l-22 -23h-32l-19 23v54l22 16h29l22 -22h24l2 -26zM2323 800v18h-29v-18h29zM2578 166v16h-140v-16h140zM2158 570v140h-250v-140h250zM2578 101v16h-140v-16h140zM2578 38v16h-141v-16h141zM2343 46v60h-60v-60h60zM2138 50q0 8 -8 8t-8 -8t8 -8t8 8z
M1950 50q0 8 -8 8t-8 -8t8 -8t8 8zM1802 46v60h-60v-60h60zM1779 373v259h-6v-253h-43q-8 0 -17 -9l-31 -32q-10 -10 -10 -15v-89h-1347v-7h1353v90q0 4 10 14l31 32q10 10 17 10h43zM948 46v60h-60v-60h60zM297 642v18h-30v-18h30zM744 50q0 8 -8 8t-8 -8t8 -8t8 8z
M499 239v167q0 16 -16.5 31t-32.5 15h-139v-12h123q52 0 52 -50v-151h13zM555 50q0 8 -8 8t-8 -8t8 -8t8 8zM408 46v60h-60v-60h60zM257 166v16h-141v-16h141zM257 101v16h-141v-16h141zM257 38v16h-141v-16h141zM2046 576h-10v126h10v-126zM2031 576h-11v126h11v-126z" />
    <glyph glyph-name="backslash" unicode="\" horiz-adv-x="2666" 
d="M2705 93l-19 -23h-32l-23 23h-55v48h55l23 22h28l23 -16v-54zM2564 80h-34v70h34v-70zM2350 73q0 -30 -21.5 -51.5t-51.5 -21.5q-28 0 -48.5 18t-24.5 45l21 28q11 15 34 15h45v21q0 16 -18 16h-31q11 3 22 3q30 0 51.5 -21t21.5 -52zM1666 908h-522v38h522v-38z
M2301 107h-45q-23 0 -33 -14l-50 -67q-11 -15 -32 -15h-137q-15 0 -32 15l-50 67q-10 14 -34 14h-44v18q0 16 17 16h423q17 0 17 -16v-18zM1637 569h-466v325h466v-325zM1941 63q-4 -27 -24.5 -45t-48.5 -18q-30 0 -51.5 21.5t-21.5 51.5q0 31 21.5 52t51.5 21q11 0 22 -3
h-31q-17 0 -17 -16v-21h44q23 0 34 -15zM962 968q5 0 -5 -6q-17 -10 -18 -19t-5 -9h-80q-3 0 -3 6q1 8 0 10t-21 16q-4 2 0 2h132zM1838 149l-28 -11h-114v-16h-24v16h-202l-11 11h213v6h24v-6h142zM915 778h-38v147h38v-147zM2555 686h-32v-664h-166v144h-2047v-144h-166
v664h-32v52h158l18 17l14 -17h314l18 17l14 -17h314l17 17l15 -17h168v-178h486v178h34l18 17l14 -17h284l17 17l15 -17h313l18 17l14 -17h180v-52zM928 749h-64v19h64v-19zM1453 106q0 -5 -12 -13q-15 -8 -30 -8h-89q-19 0 -33.5 8.5t-14.5 15.5v25q0 7 14 15t34 8h86
q10 0 23 -7q22 -12 22 -17v-27zM1243 112h-94v45h94v-45zM1133 99h-48v59h48v-59zM1070 138h-188l-29 11h217v-11zM882 73q0 -30 -21.5 -51.5t-52.5 -21.5q-27 0 -47.5 18t-24.5 45l21 28q11 15 33 15h45v21q0 16 -17 16h-31q10 3 21 3q31 0 52.5 -21t21.5 -52zM833 107h-45
q-24 0 -34 -14l-49 -67q-11 -15 -32 -15h-138q-13 0 -32 15l-49 67q-10 14 -34 14h-45v18q0 16 18 16h422q18 0 18 -16v-18zM472 63q-3 -27 -23.5 -45t-48.5 -18q-30 0 -51.5 21.5t-21.5 51.5q0 31 21.5 52t51.5 21q11 0 21 -3h-30q-18 0 -18 -16v-21h45q23 0 34 -15z
M137 80h-34v70h34v-70zM91 93h-55l-22 -23h-32l-20 23v54l23 16h29l22 -22h55v-48zM2507 234v452h-158v-452h158zM2267 474v98q0 17 -16 17h-134q-20 0 -20 -19v-94q0 -18 18 -18h134q18 0 18 16zM2510 179v16h-140v-16h140zM2510 131v16h-140v-16h140zM2510 83v16h-140v-16
h140zM2510 38v16h-140v-16h140zM2308 44v60h-60v-60h60zM1538 722v140h-261v-140h261zM2194 107q8 13 -14 13h-220q-20 0 -14 -13l37 -59q6 -13 37 -13h100q21 0 37 13zM1901 44v60h-60v-60h60zM1029 474v98q0 17 -16 17h-134q-20 0 -20 -19v-94q0 -18 18 -18h134
q18 0 18 16zM624 474v98q0 17 -16 17h-134q-20 0 -20 -19v-94q0 -18 18 -18h134q18 0 18 16zM840 44v60h-60v-60h60zM318 234v452h-158v-452h158zM726 107q2 4 -4 10q-2 3 -11 3h-219q-15 0 -15 -10q0 -2 1 -3l36 -59q10 -13 37 -13h101q21 0 37 13zM432 44v60h-60v-60h60z
M298 179v16h-141v-16h141zM298 131v16h-141v-16h141zM298 83v16h-141v-16h141zM298 38v16h-141v-16h141zM2299 73q0 -22 -22 -22t-22 22t22 22t22 -22zM2135 98l-27 9v6h12l15 -5v-10zM1421 728h-11v126h11v-126zM2135 80l-59 20v10l59 -20v-10zM1405 728h-11v126h11v-126z
M2135 61l-59 21v10l59 -21v-10zM2135 43l-59 20v11l59 -21v-10zM2056 99l-27 9v6h12l15 -5v-10zM2103 40h-12l-15 5v10l27 -9v-6zM2056 80l-59 21v10l59 -21v-10zM2056 62l-59 20v11l59 -21v-10zM2056 43l-59 21v10l59 -20v-11zM2024 41h-12l-15 4v11l27 -9v-6zM1891 73
q0 -22 -22 -22t-22 22t22 22t22 -22zM830 73q0 -22 -22 -22q-21 0 -21 22t21 22q22 0 22 -22zM666 98l-26 9v6h12l14 -5v-10zM666 80l-58 20v10l58 -20v-10zM666 61l-58 21v10l58 -21v-10zM666 43l-58 20v11l58 -21v-10zM587 99l-26 9v6h12l14 -5v-10zM635 40h-13l-14 5v10
l27 -9v-6zM587 80l-58 21v10l58 -21v-10zM587 62l-58 20v11l58 -21v-10zM587 43l-58 21v10l58 -20v-11zM556 41h-13l-14 4v11l27 -9v-6zM423 73q0 -22 -22 -22t-22 22t22 22t22 -22z" />
    <glyph glyph-name="bracketright" unicode="]" horiz-adv-x="2699" 
d="M2591 694l-17 -27v113l17 -25q-17 -26 -17 -36zM2591 385l-17 -26v299l17 -26l-17 -26q0 -10 17 -36q-17 -27 -17 -36l17 -25l-17 -26q0 -10 17 -36q-17 -27 -17 -36zM2591 206l-17 -27v175l17 -25q-17 -27 -17 -37l17 -25q-17 -26 -17 -36zM2738 93l-20 -23h-32l-22 23
h-55v48h55l22 22h29l23 -16v-54zM2597 80h-75v6l41 2v62h34v-70zM2554 109q0 -15 -15 -15h-86q-13 0 -13 12v60h14v-59h85v59h15v-57zM2511 73q0 -30 -21.5 -51.5t-51.5 -21.5q-28 0 -48.5 18t-24.5 45l21 28q11 15 34 15h44v21q0 16 -17 16h-31q11 3 22 3q30 0 51.5 -21
t21.5 -52zM2462 107h-45q-23 0 -33 -14l-50 -67q-11 -15 -32 -15h-138q-13 0 -32 15l-49 67q-10 14 -34 14h-45v18q0 16 18 16h422q18 0 18 -16v-18zM2617 822h-2373v-12h-98v12h-68v15h2539v-15zM2102 63q-4 -27 -24.5 -45t-48.5 -18q-30 0 -51.5 21.5t-21.5 51.5
q0 31 21.5 52t51.5 21q11 0 22 -3h-31q-18 0 -18 -16v-21h45q23 0 34 -15zM2570 168h-2446v636h131l13 17l15 -17h280l12 17l16 -17h280l12 17l16 -17h280l12 17l16 -17h280l12 17l16 -17h279l13 17l16 -17h279l13 17l16 -17h279l13 17l16 -17h131v-636zM1998 149l-27 -11
h-275v-16h-24v16h-421l-11 11h432v6h24v-6h302zM1234 106q0 -4 -15 -12.5t-27 -8.5h-90q-14 0 -31 9.5t-17 14.5v25q0 5 15.5 14t32.5 9h87q13 0 25 -7q20 -12 20 -17v-27zM1024 112h-94v45h94v-45zM914 99h-48v59h48v-59zM851 138h-105l-29 11h134v-11zM120 671l-18 27
l18 25q0 11 -18 36l18 25v-113zM747 73q0 -30 -21.5 -51.5t-51.5 -21.5q-28 0 -48.5 18t-24.5 45l21 28q11 15 34 15h44v21q0 16 -17 16h-31q11 3 22 3q30 0 51.5 -21t21.5 -52zM120 363l-18 26l18 26q0 9 -18 36q18 26 18 36l-18 26l18 25q0 9 -18 36q18 26 18 36l-18 26
l18 26v-299zM698 107h-45q-23 0 -33 -14l-50 -67q-11 -15 -32 -15h-138q-13 0 -32 15l-49 67q-10 14 -34 14h-45v18q0 16 18 16h422q18 0 18 -16v-18zM120 183l-18 27l18 25q0 10 -18 36l18 25q0 10 -18 37l18 25v-175zM338 63q-4 -27 -24.5 -45t-48.5 -18q-30 0 -51.5 21.5
t-21.5 51.5q0 31 21.5 52t51.5 21q11 0 22 -3h-31q-18 0 -18 -16v-21h45q23 0 34 -15zM254 109q0 -15 -15 -15h-86q-13 0 -13 12v60h14v-59h85v59h15v-57zM179 80h-75v70h29v-62l46 -2v-6zM92 93h-55l-23 -23h-32l-19 23v54l23 16h28l23 -22h55v-48zM2555 187v601h-14v-39
h-86v39h-14v-601h14v59h86v-59h14zM2084 759v7h-66v-7h66zM2469 44v60h-60v-60h60zM2355 107q6 13 -15 13h-219q-20 0 -14 -13l37 -59q6 -13 36 -13h101q21 0 37 13zM2084 202v7h-66v-7h66zM2010 200v567h-513v-567h513zM2062 44v60h-60v-60h60zM1490 200v567h-393v-567h393
zM1095 329v9h-51v-9h51zM1059 351l-9 -5l-9 5l5 -9l4 -1zM1069 290q0 12 -20 35q-18 -23 -18 -35q0 -23 19 -23t19 23zM705 44v60h-60v-60h60zM591 107q8 13 -15 13h-219q-20 0 -14 -13l37 -59q6 -13 36 -13h101q21 0 37 13zM255 187v213h-14v-59h-86v59h-14v-213h14v59h86
v-59h14zM298 44v60h-60v-60h60zM2541 667h-86v69h86v-69zM2541 586h-86v68h86v-68zM2541 504h-86v69h86v-69zM2541 422h-86v69h86v-69zM2541 341h-86v69h86v-69zM2541 259h-86v69h86v-69zM2460 73q0 -22 -22 -22t-22 22t22 22t22 -22zM2296 98l-27 9v6h12l15 -5v-10z
M2296 80l-59 20v10l59 -20v-10zM2296 61l-59 21v10l59 -21v-10zM2296 43l-59 20v11l59 -21v-10zM2216 99l-26 9v6h12l14 -5v-10zM2264 40h-12l-15 5v10l27 -9v-6zM2216 80l-58 21v10l58 -21v-10zM2216 62l-58 20v11l58 -21v-10zM2216 43l-58 21v10l58 -20v-11zM1997 214
h-488v539h488v-539zM2185 41h-13l-14 4v11l27 -9v-6zM2052 73q0 -22 -22 -22t-22 22t22 22t22 -22zM1168 385h-12q3 -16 -7.5 -31.5t-24.5 -11.5q-22 7 -12 37q2 7 8 15v0l-12 1l14 6l5 13l34 -10l-7 -9zM1344 231q2 -3 -1 -9q-7 -4 -16 -11q2 -1 1 -3q-4 -4 -10 -5
q-21 8 -69 41q-8 -9 -28 -22q-12 -7 -43 -19q-9 -1 -17 -1q-30 0 -43.5 18t-13.5 69q0 29 6 41h-11v7h16q4 3 10 4q8 1 14 -4h76q2 2 3 2q9 1 11 -2h43v-7h-43q-1 -6 -6 -9q-11 -16 -29 -41q-3 -3 -8 -3q-9 0 -24 7q1 -19 4 -37q18 6 38 13q40 13 45 13q17 0 68 -51
q6 1 17 9q3 2 5 2t5 -2zM696 73q0 -22 -22 -22t-22 22t22 22t22 -22zM532 98l-27 9v6h12l15 -5v-10zM532 80l-59 20v10l59 -20v-10zM532 61l-59 21v10l59 -21v-10zM532 43l-59 20v11l59 -21v-10zM452 99l-26 9v6h12l14 -5v-10zM500 40h-12l-15 5v10l27 -9v-6zM452 80l-58 21
v10l58 -21v-10zM452 62l-58 20v11l58 -21v-10zM241 259h-86v69h86v-69zM452 43l-58 21v10l58 -20v-11zM421 41h-13l-14 4v11l27 -9v-6zM288 73q0 -22 -22 -22t-22 22t22 22t22 -22zM1212 330h-67q2 -3 4 -8q13 -5 39 -21q10 9 22 25q0 1 2 4z" />
    <glyph glyph-name="a" unicode="a" horiz-adv-x="1170" 
d="M1150 10q0 -5 -10 -10h-546q-10 5 -10 10t10 10q153 0 153 75q0 30 -18 75q-12 27 -34 80l-33 82h-315l-39 -82q-53 -111 -53 -150q0 -43 34.5 -61.5t117.5 -18.5q10 -5 10 -10t-10 -10h-377q-10 5 -10 10t10 10q58 0 104 22q17 8 43.5 31t32.5 36l322 671q4 5 25 20h93
q6 -2 25 -20l285 -670q16 -38 63 -63q51 -27 117 -27q10 -5 10 -10zM653 357l-133 334l-161 -334h294z" />
    <glyph glyph-name="b" unicode="b" horiz-adv-x="1050" 
d="M1030 206q0 -97 -83 -156q-71 -50 -164 -50h-753q-10 5 -10 10t10 10q110 0 147 18q53 26 53 72v580q0 46 -53 72q-37 18 -147 18q-10 5 -10 10t10 10h750q92 0 164 -51q83 -59 83 -155q0 -69 -43.5 -120t-119.5 -74q77 -22 121.5 -73.5t44.5 -120.5zM827 594
q0 80 -41 130.5t-106 50.5h-250v-363h250q65 0 106 51.5t41 130.5zM830 206q0 79 -41 130.5t-106 51.5h-253v-363h253q65 0 106 50.5t41 130.5z" />
    <glyph glyph-name="c" unicode="c" horiz-adv-x="1000" 
d="M980 223q0 -64 -69 -114q-164 -119 -336 -119q-225 0 -390 125.5t-165 294.5t162.5 294.5t382.5 125.5q179 0 295 -87q9 -6 29 -6q24 1 39 12q25 19 25 55q5 10 10 10t10 -10v-285q-5 -10 -10 -10t-10 10q0 67 -17 105q-13 31 -46 59q-63 69 -133.5 95.5t-191.5 26.5
q-175 0 -260 -96t-85 -299q0 -205 87 -300t268 -95q179 0 329 126q47 40 47 82q0 25 14 25q15 0 15 -25z" />
    <glyph glyph-name="d" unicode="d" horiz-adv-x="1060" 
d="M1040 400q0 -166 -163.5 -283t-392.5 -117h-454q-10 5 -10 10t10 10q110 0 147 18q53 26 53 72v580q0 46 -53 72q-37 18 -147 18q-10 5 -10 10t10 10h455q229 0 392 -117t163 -283zM840 400q0 198 -85 286.5t-270 88.5h-55v-750h55q185 0 270 88.5t85 286.5z" />
    <glyph glyph-name="e" unicode="e" horiz-adv-x="1140" 
d="M1120 0h-1090q-10 5 -10 10t10 10q110 0 147 18q53 26 53 72v580q0 46 -53 72q-37 18 -147 18q-10 5 -10 10t10 10h1090v-225q-5 -10 -10 -10t-10 10q0 19 -24 65q-27 52 -59 78.5t-91 42.5q-52 14 -96 14h-400v-360h170q21 0 51 12q34 14 48 36q11 17 33 83q18 56 18 69
q5 10 10 10t10 -10v-425q-5 -10 -10 -10t-10 10q0 12 -18.5 68t-30 80.5t-50.5 39.5q-30 12 -51 12h-170v-365h400q117 0 182 53q34 27 63 83q25 48 25 64q5 10 10 10t10 -10v-225z" />
    <glyph glyph-name="f" unicode="f" horiz-adv-x="1140" 
d="M1120 575q-5 -10 -10 -10t-10 10q0 19 -24 65q-27 52 -59 78.5t-91 42.5q-52 14 -96 14h-400v-360h170q21 0 51 12q34 14 48 36q11 17 33 83q18 56 18 69q5 10 10 10t10 -10v-425q-5 -10 -10 -10t-10 10q0 12 -18.5 68t-30 80.5t-50.5 39.5q-30 12 -51 12h-170v-280
q0 -46 53 -72q37 -18 147 -18q10 -5 10 -10t-10 -10h-600q-10 5 -10 10t10 10q110 0 147 18q53 26 53 72v580q0 46 -53 72q-37 18 -147 18q-10 5 -10 10t10 10h1090v-225z" />
    <glyph glyph-name="g" unicode="g" horiz-adv-x="1281" 
d="M1261 307q0 -5 -10 -10q-17 0 -70 -9q-62 -11 -77 -19q-39 -21 -55 -66q-10 -42 -20 -83q-11 -7 -40 -7q-12 0 -26 1q-51 4 -57 -2q-52 -54 -142.5 -88t-188.5 -34q-225 0 -390 125.5t-165 294.5t162.5 294.5t382.5 125.5q179 0 295 -87q9 -6 29 -6q24 1 39 12
q25 19 25 55q5 10 10 10t10 -10v-285q-5 -10 -10 -10t-10 10q0 114 -63 164q-100 79 -157 100.5t-168 21.5q-345 0 -345 -395q0 -205 87 -300t268 -95q154 0 283 101q14 11 3 91q-5 35 -53 62q-15 8 -77 19q-53 9 -70 9q-10 5 -10 10t10 10h590q10 -5 10 -10z" />
    <glyph glyph-name="h" unicode="h" horiz-adv-x="1350" 
d="M1330 10q0 -5 -10 -10h-570q-10 5 -10 10t10 10q80 0 117 18q53 26 53 72v277h-490v-277q0 -46 53 -72q37 -18 117 -18q10 -5 10 -10t-10 -10h-570q-10 5 -10 10t10 10q110 0 147 18q53 26 53 72v580q0 46 -53 72q-37 18 -147 18q-10 5 -10 10t10 10h570q10 -5 10 -10
t-10 -10q-80 0 -117 -18q-53 -26 -53 -72v-278h490v278q0 46 -53 72q-37 18 -117 18q-10 5 -10 10t10 10h570q10 -5 10 -10t-10 -10q-110 0 -147 -18q-53 -26 -53 -72v-580q0 -46 53 -72q37 -18 147 -18q10 -5 10 -10z" />
    <glyph glyph-name="i" unicode="i" horiz-adv-x="660" 
d="M640 10q0 -5 -10 -10h-600q-10 5 -10 10t10 10q110 0 147 18q53 26 53 72v580q0 46 -53 72q-37 18 -147 18q-10 5 -10 10t10 10h600q10 -5 10 -10t-10 -10q-110 0 -147 -18q-53 -26 -53 -72v-580q0 -46 53 -72q37 -18 147 -18q10 -5 10 -10z" />
    <glyph glyph-name="j" unicode="j" horiz-adv-x="1081" 
d="M1061 790q0 -5 -10 -10q-110 0 -147 -18q-53 -26 -53 -72v-380q0 -157 -118.5 -238.5t-346.5 -81.5q-263 0 -353 199q-13 29 -13 52q0 44 30.5 78.5t72.5 34.5t72.5 -34.5t30.5 -78.5t-30.5 -78.5t-72.5 -34.5q-10 0 -19 2q99 -108 242 -108q144 0 224.5 79.5t80.5 228.5
v360q0 46 -53 72q-37 18 -147 18q-10 5 -10 10t10 10h600q10 -5 10 -10z" />
    <glyph glyph-name="k" unicode="k" horiz-adv-x="1238" 
d="M1218 10q0 -5 -10 -10h-536q-10 5 -10 10t10 10q31 0 86 51q26 24 26 52q0 35 -42 82l-170 189l-142 -107v-177q0 -39 39.5 -64.5t100.5 -25.5q10 -5 10 -10t-10 -10h-540q-10 5 -10 10t10 10q110 0 147 18q53 26 53 72v580q0 46 -53 72q-37 18 -147 18q-10 5 -10 10
t10 10h580q10 -5 10 -10t-10 -10q-90 0 -127 -18q-53 -26 -53 -72v-369l423 319q60 45 60 65q0 14 -15 37q-11 16 -51 28q-35 10 -53 10q-10 5 -10 10t10 10h394q10 -5 10 -10t-10 -10q-13 0 -66 -16.5t-74 -26.5q-53 -26 -80 -46l-278 -208l291 -321q50 -55 111 -99
q17 -13 59 -28t57 -15q10 -5 10 -10z" />
    <glyph glyph-name="l" unicode="l" horiz-adv-x="1140" 
d="M1120 0h-1090q-10 5 -10 10t10 10q110 0 147 18q53 26 53 72v580q0 46 -53 72q-37 18 -147 18q-10 5 -10 10t10 10h600q10 -5 10 -10t-10 -10q-110 0 -147 -18q-53 -26 -53 -72v-665h400q117 0 182 53q34 27 63 83q25 48 25 64q5 10 10 10t10 -10v-225z" />
    <glyph glyph-name="m" unicode="m" horiz-adv-x="1645" 
d="M1625 10q0 -5 -10 -10h-600q-10 5 -10 10t10 10q110 0 147 18q53 26 53 72v582l-423 -672q-6 -9 -25 -20h-93q-6 2 -25 20l-394 637v-547q0 -46 53 -72q37 -18 147 -18q10 -5 10 -10t-10 -10h-425q-10 5 -10 10t10 10q110 0 147 18q53 26 53 72v586q0 32 -69 66
q-37 18 -127 18q-10 5 -10 10t10 10h340l436 -705l449 705h356q10 -5 10 -10t-10 -10q-110 0 -147 -18q-53 -26 -53 -72v-580q0 -46 53 -72q37 -18 147 -18q10 -5 10 -10z" />
    <glyph glyph-name="n" unicode="n" horiz-adv-x="1215" 
d="M1195 790q0 -5 -10 -10q-110 0 -147 -18q-53 -26 -53 -73v-689h-48l-682 682v-572q0 -46 53 -72q37 -18 147 -18q10 -5 10 -10t-10 -10h-425q-10 5 -10 10t10 10q110 0 147 18q53 26 53 72v599q0 27 -53 53q-37 18 -147 18q-10 5 -10 10t10 10h370l560 -568v458
q0 46 -53 72q-37 18 -147 18q-10 5 -10 10t10 10h425q10 -5 10 -10z" />
    <glyph glyph-name="o" unicode="o" horiz-adv-x="1150" 
d="M1130 410q0 -169 -165 -294.5t-390 -125.5t-390 125.5t-165 294.5t165 294.5t390 125.5t390 -125.5t165 -294.5zM930 410q0 205 -87 300t-268 95t-268 -95t-87 -300t87 -300t268 -95t268 95t87 300z" />
    <glyph glyph-name="p" unicode="p" horiz-adv-x="1050" 
d="M1030 594q0 -96 -83 -155q-72 -51 -164 -51h-353v-278q0 -46 53 -72q37 -18 147 -18q10 -5 10 -10t-10 -10h-600q-10 5 -10 10t10 10q110 0 147 18q53 26 53 72v580q0 46 -53 72q-37 18 -147 18q-10 5 -10 10t10 10h753q92 0 164 -51q83 -59 83 -155zM830 594
q0 80 -41 130.5t-106 50.5h-253v-363h253q65 0 106 51.5t41 130.5z" />
    <glyph glyph-name="q" unicode="q" horiz-adv-x="1150" 
d="M1156 -29q-5 -53 -67 -98t-124 -45q-34 0 -154.5 23t-132.5 23q-44 0 -62.5 -5.5t-59.5 -31.5q-15 -9 -18 -8q-4 4 -3 17q8 78 101 147q-30 -3 -61 -3q-225 0 -390 125.5t-165 294.5t165 294.5t390 125.5t390 -125.5t165 -294.5q0 -126 -95.5 -233.5t-246.5 -154.5
q15 -3 114 -38q84 -30 111 -30q76 0 66 -1q24 3 57 28q14 11 17 8q4 -3 3 -18zM930 410q0 205 -87 300t-268 95t-268 -95t-87 -300t87 -300t268 -95t268 95t87 300z" />
    <glyph glyph-name="r" unicode="r" horiz-adv-x="1108" 
d="M1088 77q-19 -19 -62 -43q-61 -34 -108 -34q-69 0 -98 14q-42 21 -72 86l-66 145q-37 82 -104 141q-2 2 -9 2h-139v-278q0 -46 53 -72q37 -18 147 -18q10 -5 10 -10t-10 -10h-600q-10 5 -10 10t10 10q110 0 147 18q53 26 53 72v580q0 46 -53 72q-37 18 -147 18
q-10 5 -10 10t10 10h753q93 0 164 -50q83 -59 83 -156q0 -92 -69.5 -149t-178.5 -57q41 -36 92 -121q12 -21 33.5 -84t30.5 -77q25 -38 76 -37q31 0 56 18q13 6 16 4q10 -8 2 -14zM830 594q0 80 -41 130.5t-106 50.5h-253v-363h253q65 0 106 51.5t41 130.5z" />
    <glyph glyph-name="s" unicode="s" horiz-adv-x="878" 
d="M858 255q0 -104 -74.5 -170t-211.5 -85q-72 -10 -132 -10q-188 0 -291 65q-31 20 -62 6q-35 -15 -35 -55q-5 -10 -10 -10t-10 10v285q5 10 10 10t10 -10q0 -74 17 -106q9 -17 46 -53q88 -86 193 -102q65 -10 132 -10q294 0 294 150q0 58 -49 104t-113 46h-266
q-115 0 -200.5 72t-85.5 173q0 206 286 245q73 10 132 10q187 0 291 -65q32 -20 62 -6q35 17 35 55q5 10 10 10t10 -10v-285q-5 -10 -10 -10t-10 10q0 75 -17 106q-10 18 -46 53q-88 86 -193 102q-65 10 -132 10q-76 0 -132 -10q-162 -29 -162 -130q0 -56 47 -93t115 -37
h266q110 0 198 -80t88 -185z" />
    <glyph glyph-name="t" unicode="t" horiz-adv-x="1150" 
d="M1130 575q-5 -10 -10 -10t-10 10q0 18 -40 70t-77.5 77t-101.5 41q-47 12 -71 12h-145v-665q0 -46 53 -72q37 -18 147 -18q10 -5 10 -10t-10 -10h-600q-10 5 -10 10t10 10q110 0 147 18q53 26 53 72v665h-145q-24 0 -71 -12q-65 -17 -104.5 -44t-77 -77.5t-37.5 -66.5
q-5 -10 -10 -10t-10 10v225h1110v-225z" />
    <glyph glyph-name="u" unicode="u" horiz-adv-x="1263" 
d="M1243 790q0 -5 -10 -10q-110 0 -147 -18q-53 -26 -53 -73v-379q0 -151 -95 -235.5t-263 -84.5q-445 0 -445 320v380q0 46 -53 72q-37 18 -147 18q-10 5 -10 10t10 10h580q10 -5 10 -10t-10 -10q-90 0 -127 -18q-53 -26 -53 -72v-360q0 -308 285 -308q139 0 216 78t77 216
v374q0 46 -53 72q-37 18 -127 18q-10 5 -10 10t10 10h405q10 -5 10 -10z" />
    <glyph glyph-name="v" unicode="v" horiz-adv-x="1170" 
d="M1150 790q0 -5 -10 -10q-58 0 -104 -22q-17 -8 -43.5 -31t-32.5 -36l-322 -671q-4 -5 -25 -20h-93q-6 2 -25 20l-285 670q-16 38 -63 63q-51 27 -117 27q-10 5 -10 10t10 10h546q10 -5 10 -10t-10 -10q-153 0 -153 -75q0 -30 18 -75q12 -27 34 -80l175 -441l212 441
q53 110 53 150q0 43 -34.5 61.5t-117.5 18.5q-10 5 -10 10t10 10h377q10 -5 10 -10z" />
    <glyph glyph-name="w" unicode="w" horiz-adv-x="1648" 
d="M1628 790q0 -5 -10 -10q-109 0 -146 -17t-54 -73l-206 -670q-4 -5 -25 -20h-117q-6 2 -25 20l-196 638l-196 -638q-4 -5 -25 -20h-119q-6 2 -25 20l-254 670q-7 19 -14 36q-14 24 -39 36q-37 18 -147 18q-10 5 -10 10t10 10h600q10 -5 10 -10t-10 -10q-110 0 -147 -18
q-54 -26 -54 -65q0 -4 1 -7l220 -582l203 672q4 5 25 20h123q6 -2 25 -20l184 -672l180 582q5 16 -10.5 37.5t-42.5 34.5q-38 18 -147 18q-10 5 -10 10t10 10h428q10 -5 10 -10z" />
    <glyph glyph-name="x" unicode="x" horiz-adv-x="1025" 
d="M1005 10q0 -5 -10 -10h-536q-10 5 -10 10t10 10q53 0 82 44q24 36 24 52q0 18 -26 62l-126 214l-125 -205q-32 -52 -32 -78t31 -61q25 -28 85 -28q10 -5 10 -10t-10 -10h-324q-10 5 -10 10t10 10q104 0 160 89l191 305l-169 276q-32 52 -68 70q-41 20 -132 20
q-10 5 -10 10t10 10h546q10 -5 10 -10t-10 -10q-15 0 -49 -20.5t-46 -37.5q-19 -28 -19 -46q0 -16 23 -55l129 -216l125 202q32 52 32 81q0 34 -24 59q-31 33 -91 33q-10 5 -10 10t10 10h324q10 -5 10 -10t-10 -10q-104 0 -160 -89l-193 -308l168 -273q32 -52 68 -70
q41 -20 132 -20q10 -5 10 -10z" />
    <glyph glyph-name="y" unicode="y" horiz-adv-x="1010" 
d="M990 790q0 -5 -10 -10q-104 0 -160 -89l-189 -302q-7 -11 -7 -20v-259q0 -46 53 -72q37 -18 147 -18q10 -5 10 -10t-10 -10h-600q-10 5 -10 10t10 10q110 0 147 18q53 26 53 72v253q0 10 -6 20l-188 307q-32 52 -68 70q-41 20 -132 20q-10 5 -10 10t10 10h546
q10 -5 10 -10t-10 -10q-16 0 -46 -16.5t-43 -33.5q-28 -37 -28 -55q0 -14 16 -40l133 -220q2 -4 5 -4q4 0 7 4l119 192q32 52 32 81q0 34 -24 59q-31 33 -91 33q-10 5 -10 10t10 10h324q10 -5 10 -10z" />
    <glyph glyph-name="z" unicode="z" horiz-adv-x="820" 
d="M810 0h-790l561 775h-271q-48 0 -101 -15t-81 -38q-36 -29 -64 -82q-24 -46 -24 -65q-5 -10 -10 -10t-10 10v225h790l-565 -775h275q117 0 182 53q34 27 63 83q25 48 25 64q5 10 10 10t10 -10v-225z" />
    <glyph glyph-name="asciitilde" unicode="~" horiz-adv-x="582" 
d="M562 488q-6 -59 -72 -121t-120 -62q-16 0 -101.5 18t-105.5 18q-39 -1 -71 -13q-25 -12 -51 -24l-18 -8q-4 3 -3 17q6 59 71.5 121t120.5 62q23 0 104 -18t102 -18q38 1 71 13l52 24q13 13 17 8q5 -3 4 -17z" />
    <glyph glyph-name="nonbreakingspace" unicode="&#xa0;" horiz-adv-x="800" 
 />
  </font>
</defs>
</svg>
